<svg width="29" height="30" viewBox="0 0 29 30" fill="none" xmlns="http://www.w3.org/2000/svg">
<g clip-path="url(#clip0_269_1035)">
<g clip-path="url(#clip1_269_1035)">
<path fill-rule="evenodd" clip-rule="evenodd" d="M23.6761 14.4112L22.1685 16.0581V22.8169C22.1685 23.2369 22.0017 23.6397 21.7047 23.9366C21.4077 24.2336 21.0049 24.4005 20.5849 24.4005H7.91628C7.49628 24.4005 7.09349 24.2336 6.79651 23.9366C6.49953 23.6397 6.33269 23.2369 6.33269 22.8169V10.1482C6.33269 9.72822 6.49953 9.32543 6.79651 9.02845C7.09349 8.73147 7.49628 8.56463 7.91628 8.56463H15.0218L12.0019 5.39746H7.91628C6.6563 5.39746 5.44793 5.89798 4.55699 6.78892C3.66605 7.67986 3.16553 8.88823 3.16553 10.1482V22.8169C3.16553 24.0768 3.66605 25.2852 4.55699 26.1762C5.44793 27.0671 6.6563 27.5676 7.91628 27.5676H20.5849C21.8449 27.5676 23.0533 27.0671 23.9442 26.1762C24.8352 25.2852 25.3357 24.0768 25.3357 22.8169V14.2228L24.3111 14.1563C24.1932 14.1488 24.0751 14.1678 23.9655 14.2119C23.8559 14.2561 23.7575 14.3241 23.6777 14.4112H23.6761Z" fill="white"/>
<path fill-rule="evenodd" clip-rule="evenodd" d="M23.6761 14.4112L22.1685 16.0581V22.8169C22.1685 23.2369 22.0017 23.6397 21.7047 23.9366C21.4077 24.2336 21.0049 24.4005 20.5849 24.4005H7.91628C7.49628 24.4005 7.09349 24.2336 6.79651 23.9366C6.49953 23.6397 6.33269 23.2369 6.33269 22.8169V10.1482C6.33269 9.72822 6.49953 9.32543 6.79651 9.02845C7.09349 8.73147 7.49628 8.56463 7.91628 8.56463H15.0218L12.0019 5.39746H7.91628C6.6563 5.39746 5.44793 5.89798 4.55699 6.78892C3.66605 7.67986 3.16553 8.88823 3.16553 10.1482V22.8169C3.16553 24.0768 3.66605 25.2852 4.55699 26.1762C5.44793 27.0671 6.6563 27.5676 7.91628 27.5676H20.5849C21.8449 27.5676 23.0533 27.0671 23.9442 26.1762C24.8352 25.2852 25.3357 24.0768 25.3357 22.8169V14.2228L24.3111 14.1563C24.1932 14.1488 24.0751 14.1678 23.9655 14.2119C23.8559 14.2561 23.7575 14.3241 23.6777 14.4112H23.6761Z" fill="url(#paint0_linear_269_1035)"/>
<path fill-rule="evenodd" clip-rule="evenodd" d="M25.3882 0.835449L24.6819 6.18796C24.6521 6.41438 24.6735 6.6446 24.7445 6.86166C24.8155 7.07872 24.9342 7.27709 25.0921 7.44215L28.4952 11.0036L23.5797 10.6869C23.3517 10.6718 23.1232 10.708 22.9111 10.793C22.6989 10.878 22.5086 11.0095 22.354 11.1778L18.7086 15.1605L19.4102 9.80328C19.4397 9.57711 19.4182 9.34719 19.3472 9.13042C19.2763 8.91366 19.1576 8.71555 19 8.55066L15.6016 4.99077L20.5108 5.30749C20.7385 5.32238 20.9667 5.286 21.1786 5.20105C21.3904 5.11609 21.5805 4.98471 21.7349 4.81658L25.3882 0.835449ZM15.7331 12.668L15.3277 15.7322C15.3002 15.9409 15.32 16.1532 15.3855 16.3533C15.451 16.5533 15.5606 16.7362 15.7062 16.8882L17.6397 18.912L14.8463 18.7315C14.6361 18.7179 14.4254 18.7516 14.23 18.8303C14.0346 18.9089 13.8593 19.0305 13.7172 19.186L11.63 21.4664L12.0323 18.3974C12.0592 18.1892 12.0392 17.9775 11.9738 17.778C11.9083 17.5785 11.7989 17.3962 11.6538 17.2445L9.72339 15.2207L12.5152 15.3997C12.7251 15.4133 12.9353 15.3797 13.1304 15.3013C13.3256 15.2229 13.5006 15.1017 13.6428 14.9468L15.7331 12.668Z" fill="white"/>
</g>
</g>
<defs>
<linearGradient id="paint0_linear_269_1035" x1="18.2743" y1="42.236" x2="18.2743" y2="10.0076" gradientUnits="userSpaceOnUse">
<stop stop-color="#16C4CE"/>
<stop offset="1" stop-color="#0E919C"/>
</linearGradient>
<clipPath id="clip0_269_1035">
<rect width="28.5045" height="28.5045" fill="white" transform="translate(0 0.649902)"/>
</clipPath>
<clipPath id="clip1_269_1035">
<rect width="28.5045" height="28.5045" fill="white" transform="translate(0 0.649902)"/>
</clipPath>
</defs>
</svg>
