<svg width="33" height="34" viewBox="0 0 33 34" fill="none" xmlns="http://www.w3.org/2000/svg">
<path fill-rule="evenodd" clip-rule="evenodd" d="M24.7562 1.7112C22.4746 -0.570501 18.7751 -0.570386 16.4936 1.71147L1.20882 16.9982C0.576909 17.63 0.221902 18.4872 0.221902 19.3809V22.8775C0.221902 24.7387 1.73071 26.2475 3.59193 26.2475H7.08832C7.98216 26.2475 8.8394 25.8924 9.47142 25.2603L24.7564 9.97332C27.0378 7.69168 27.0378 3.9927 24.7562 1.7112ZM14.4429 24.8032C14.4429 24.0055 15.0896 23.3589 15.8872 23.3589H31.2931C32.0907 23.3589 32.7374 24.0055 32.7374 24.8032C32.7374 25.6008 32.0907 26.2475 31.2931 26.2475H15.8872C15.0896 26.2475 14.4429 25.6008 14.4429 24.8032ZM1.4443 30.3951C0.646621 30.3951 0 31.0418 0 31.8394C0 32.637 0.646621 33.2837 1.4443 33.2837H31.2931C32.0907 33.2837 32.7374 32.637 32.7374 31.8394C32.7374 31.0418 32.0907 30.3951 31.2931 30.3951H1.4443Z" fill="url(#paint0_linear_2028_178)"/>
<path fill-rule="evenodd" clip-rule="evenodd" d="M14.4429 24.805C14.4429 24.0073 15.0896 23.3607 15.8872 23.3607H31.2931C32.0907 23.3607 32.7374 24.0073 32.7374 24.805C32.7374 25.6026 32.0907 26.2493 31.2931 26.2493H15.8872C15.0896 26.2493 14.4429 25.6026 14.4429 24.805ZM1.4443 30.3969C0.646621 30.3969 0 31.0436 0 31.8412C0 32.6388 0.646621 33.2855 1.4443 33.2855H31.2931C32.0907 33.2855 32.7374 32.6388 32.7374 31.8412C32.7374 31.0436 32.0907 30.3969 31.2931 30.3969H1.4443Z" fill="#E2DFDF"/>
<defs>
<linearGradient id="paint0_linear_2028_178" x1="16.3687" y1="0" x2="16.3687" y2="33.2837" gradientUnits="userSpaceOnUse">
<stop stop-color="#3B5998"/>
<stop offset="1" stop-color="#03D2FF"/>
</linearGradient>
</defs>
</svg>
