<svg width="39" height="39" viewBox="0 0 39 39" fill="none" xmlns="http://www.w3.org/2000/svg">
<path d="M33 19C33 25.6274 27.1797 31 20 31C12.8203 31 7 25.6274 7 19C7 12.3726 12.8203 7 20 7C27.1797 7 33 12.3726 33 19Z" fill="white"/>
<path fill-rule="evenodd" clip-rule="evenodd" d="M-0.000196457 7.8002C-0.000196457 3.49238 3.49198 0.000200272 7.7998 0.000200272H31.1998C35.5076 0.000200272 38.9998 3.49238 38.9998 7.8002V26.0002C38.9998 30.308 35.5076 33.8002 31.1998 33.8002H24.6397L20.4782 38.5563C20.2313 38.8384 19.8747 39.0002 19.4998 39.0002C19.1249 39.0002 18.7683 38.8384 18.5214 38.5563L14.3599 33.8002H7.7998C3.49198 33.8002 -0.000196457 30.308 -0.000196457 26.0002V7.8002ZM19.4998 7.8002C20.1067 7.8002 20.6329 8.22016 20.7674 8.81192L21.4867 11.9751C21.8194 13.4382 22.9618 14.5806 24.4249 14.9133L27.5881 15.6326C28.1798 15.7671 28.5998 16.2933 28.5998 16.9002C28.5998 17.5071 28.1798 18.0333 27.5881 18.1678L24.4249 18.8871C22.9618 19.2198 21.8194 20.3622 21.4867 21.8253L20.7674 24.9885C20.6329 25.5802 20.1067 26.0002 19.4998 26.0002C18.8929 26.0002 18.3667 25.5802 18.2322 24.9885L17.5129 21.8253C17.1802 20.3622 16.0378 19.2198 14.5747 18.8871L11.4115 18.1678C10.8198 18.0333 10.3998 17.5071 10.3998 16.9002C10.3998 16.2933 10.8198 15.7671 11.4115 15.6326L14.5747 14.9133C16.0378 14.5806 17.1802 13.4382 17.5129 11.9751L18.2322 8.81192C18.3667 8.22016 18.8929 7.8002 19.4998 7.8002Z" fill="url(#paint0_linear_2028_162)"/>
<defs>
<linearGradient id="paint0_linear_2028_162" x1="-23.1113" y1="-22.8862" x2="-23.1113" y2="16.1138" gradientUnits="userSpaceOnUse">
<stop stop-color="#3B5998"/>
<stop offset="1" stop-color="#03D2FF"/>
</linearGradient>
</defs>
</svg>
