<svg width="42" height="32" viewBox="0 0 42 32" fill="none" xmlns="http://www.w3.org/2000/svg">
<path d="M41.5363 15.4519C41.5363 20.3698 37.5485 24.3577 32.6304 24.3577H30.1552L30.7375 23.7105C31.5018 22.847 31.702 21.65 31.2188 20.6043C30.7537 19.5407 29.7406 18.8772 28.5777 18.8772H26.1187V13.5592C26.1187 11.8141 24.7071 10.3863 22.9458 10.3863H18.5758C16.8307 10.3863 15.4029 11.8159 15.4029 13.5592V18.8759H12.9439C11.7973 18.8759 10.7841 19.5411 10.3028 20.6029C9.83766 21.6503 10.0197 22.8456 10.8003 23.7092L11.3826 24.3563H6.9135C3.08975 24.3581 0 21.2682 0 17.4461C0 13.624 3.08998 10.534 6.91212 10.534C7.5593 10.534 8.17408 10.6511 8.77258 10.817C8.83928 4.8353 13.6905 0 19.6883 0C24.3575 0 28.3113 2.92412 29.8901 7.02749C30.7537 6.74446 31.6677 6.56238 32.6322 6.56238C37.5482 6.56418 41.5363 10.5337 41.5363 15.4519ZM21.6819 31.3003L29.4954 22.6035C30.2111 21.8067 29.645 20.5393 28.5741 20.5393H24.4601V13.5626C24.4601 12.7279 23.7841 12.0518 22.9494 12.0518H18.574C17.7393 12.0518 17.0633 12.7279 17.0633 13.5626V20.5393H12.9493C11.8784 20.5393 11.3123 21.8067 12.0281 22.6035L19.8415 31.3003C20.3337 31.8484 21.1897 31.8484 21.6819 31.3003Z" fill="url(#paint0_linear_2028_179)"/>
<path d="M21.6819 30.7379L29.4954 22.0411C30.2111 21.2443 29.645 19.9769 28.5741 19.9769H24.4601V13.0002C24.4601 12.1655 23.7841 11.4895 22.9494 11.4895H18.574C17.7393 11.4895 17.0633 12.1655 17.0633 13.0002V19.9769H12.9493C11.8784 19.9769 11.3123 21.2443 12.0281 22.0411L19.8415 30.7379C20.3337 31.286 21.1897 31.286 21.6819 30.7379Z" fill="#E2DFDF"/>
<defs>
<linearGradient id="paint0_linear_2028_179" x1="20.7681" y1="0" x2="20.7681" y2="31.7113" gradientUnits="userSpaceOnUse">
<stop stop-color="#3B5998"/>
<stop offset="1" stop-color="#03D2FF"/>
</linearGradient>
</defs>
</svg>
