<svg width="40" height="39" viewBox="0 0 40 39" fill="none" xmlns="http://www.w3.org/2000/svg">
<path d="M39.0112 3.359C39.0112 4.26009 38.6615 5.10742 38.0294 5.7395C37.8546 5.91435 37.6528 6.06236 37.4511 6.19682C37.33 6.02197 37.1956 5.87404 37.0476 5.72612L36.5096 5.17465L33.8332 2.49822L33.2817 1.93336C33.1338 1.78535 32.9859 1.66436 32.811 1.55674C32.932 1.35504 33.0934 1.15327 33.2683 0.978419C34.5864 -0.32614 36.7113 -0.32614 38.0294 0.978419C38.6615 1.61059 39.0112 2.45783 39.0112 3.359Z" fill="#E2DFDF"/>
<path d="M36.7106 8.12003C36.7106 8.65804 36.5089 9.15566 36.1188 9.54567C35.7288 9.93576 35.2177 10.124 34.6932 10.124C34.1821 10.124 33.6576 9.93576 33.2675 9.54567L29.4614 5.73945C29.0848 5.34944 28.8696 4.85182 28.8696 4.31381C28.8696 3.77588 29.0848 3.26479 29.4614 2.88817C29.8514 2.49816 30.349 2.29639 30.887 2.29639C31.4384 2.29639 31.9361 2.49816 32.3262 2.88817L36.1188 6.69439C36.5089 7.07101 36.7106 7.56864 36.7106 8.12003Z" fill="#E2DFDF"/>
<path d="M32.8379 10.9311L26.6109 17.1447C25.8711 17.8979 24.8086 18.2341 23.773 18.0862C23.773 18.0996 23.7595 18.0996 23.7595 18.0996C23.3695 18.4897 22.845 18.6914 22.3339 18.6914C21.8228 18.6914 21.2983 18.4897 20.9082 18.0996C20.1282 17.3196 20.1282 16.0284 20.9082 15.2483C20.9082 15.2483 20.9082 15.2348 20.9217 15.2348C20.7738 14.1993 21.11 13.1367 21.8632 12.397L28.0903 6.16992C28.2113 6.34477 28.3458 6.50616 28.4938 6.66755L28.9914 7.16517L31.8427 10.0299L32.3135 10.5007C32.4748 10.6621 32.6497 10.7965 32.8379 10.9311Z" fill="#E2DFDF"/>
<path d="M27.2429 5.1074L20.9082 11.4421C20.6258 11.7111 20.3837 12.0204 20.2089 12.3567C19.0118 12.0608 17.761 12.0339 16.564 12.2491L16.2143 10.9579L14.4659 4.44839L14.1162 3.15721C16.9675 2.48474 19.9533 2.52513 22.8584 3.30514C24.4185 3.70869 25.8845 4.32731 27.2429 5.1074Z" fill="url(#paint0_linear_269_464)"/>
<path d="M35.8504 24.8914L34.5592 24.5417L28.0496 22.7933L26.7585 22.4436C26.9737 21.2331 26.9468 19.9823 26.6509 18.7853C26.9871 18.6105 27.2964 18.3684 27.5654 18.086L33.8867 11.7782C36.2673 15.9071 36.8456 20.5741 35.8504 24.8914Z" fill="url(#paint1_linear_269_464)"/>
<path d="M35.5009 26.196C34.2097 30.4191 31.3719 34.185 27.2429 36.5656C24.3916 38.2198 21.2713 38.9999 18.1914 38.9999C13.6455 38.9999 9.1937 37.2918 5.81787 34.1312L6.75935 33.1897L11.5339 28.4286L12.4754 27.4872C15.9184 30.4191 21.0964 30.2712 24.3512 27.0298C25.3061 26.075 25.9921 24.9452 26.3955 23.7482L27.7002 24.0979L34.2097 25.8463L35.5009 26.196Z" fill="url(#paint2_linear_269_464)"/>
<path d="M11.9775 14.6565C8.73614 17.9114 8.58822 23.0894 11.5202 26.5324L10.5922 27.4739L5.81763 32.2485L4.86269 33.1899C3.94814 32.2215 3.1412 31.1188 2.4418 29.9217C0.00745407 25.7255 -0.624632 20.8299 0.626159 16.1495C1.87695 11.4556 4.88962 7.5418 9.08584 5.12091C10.2829 4.43497 11.5202 3.89696 12.8114 3.50696L13.1611 4.79814L14.9095 11.3076L15.2592 12.6123C14.0622 13.0157 12.9324 13.7017 11.9775 14.6565Z" fill="url(#paint3_linear_269_464)"/>
<defs>
<linearGradient id="paint0_linear_269_464" x1="20.6796" y1="2.6842" x2="20.6796" y2="12.3567" gradientUnits="userSpaceOnUse">
<stop stop-color="#3B5998"/>
<stop offset="1" stop-color="#03D2FF"/>
</linearGradient>
<linearGradient id="paint1_linear_269_464" x1="31.4832" y1="11.7782" x2="31.4832" y2="24.8914" gradientUnits="userSpaceOnUse">
<stop stop-color="#3B5998"/>
<stop offset="1" stop-color="#03D2FF"/>
</linearGradient>
<linearGradient id="paint2_linear_269_464" x1="20.6594" y1="23.7482" x2="20.6594" y2="38.9999" gradientUnits="userSpaceOnUse">
<stop stop-color="#3B5998"/>
<stop offset="1" stop-color="#03D2FF"/>
</linearGradient>
<linearGradient id="paint3_linear_269_464" x1="7.62959" y1="3.50696" x2="7.62959" y2="33.1899" gradientUnits="userSpaceOnUse">
<stop stop-color="#3B5998"/>
<stop offset="1" stop-color="#03D2FF"/>
</linearGradient>
</defs>
</svg>
